<svg width="597" height="584" viewBox="0 0 597 584" fill="none" xmlns="http://www.w3.org/2000/svg">
<path d="M29.9866 59.9237C46.5478 59.9237 59.9733 46.5093 59.9733 29.9619C59.9733 13.4144 46.5478 7.31491e-06 29.9866 7.31491e-06C13.4255 7.31491e-06 7.32095e-06 13.4144 7.32095e-06 29.9619C7.32095e-06 46.5093 13.4255 59.9237 29.9866 59.9237Z" transform="matrix(-0.886104 -0.463487 -0.464544 0.88555 503.909 423.546)" fill="#B1A1FF"/>
<path d="M29.9738 59.9493C46.5279 59.9493 59.9477 46.5292 59.9477 29.9747C59.9477 13.4201 46.5279 1.34164e-05 29.9738 1.34164e-05C13.4197 1.34164e-05 0 13.4201 0 29.9747C0 46.5292 13.4197 59.9493 29.9738 59.9493Z" transform="translate(192.985 282.464) scale(1.00073 0.999274) rotate(45.5369)" fill="#B1A1FF"/>
<path d="M17.9843 8.99239C17.9843 4.02603 13.9584 -3.65901e-06 8.99215 -3.65901e-06C4.02592 -3.65901e-06 0 4.02603 0 8.99239V54.0543C0 59.0206 4.02592 63.0467 8.99215 63.0467C13.9584 63.0467 17.9843 59.0206 17.9843 54.0543V8.99239Z" transform="translate(134.545 376.732) scale(1.00072 0.999277) rotate(-127.903)" fill="#B1A1FF"/>
<path d="M45.9599 91.9223C71.3428 91.9223 91.9198 71.3448 91.9198 45.9611C91.9198 20.5775 71.3428 -1.34164e-05 45.9599 -1.34164e-05C20.5769 -1.34164e-05 0 20.5775 0 45.9611C0 71.3448 20.5769 91.9223 45.9599 91.9223Z" transform="translate(93.4092 319.642) scale(1.00073 0.999274) rotate(45.5369)" fill="#B1A1FF"/>
<path d="M15.9864 35.9689C24.8154 35.9689 31.9727 27.917 31.9727 17.9844C31.9727 8.05188 24.8154 3.65894e-06 15.9864 3.65894e-06C7.15734 3.65894e-06 0 8.05188 0 17.9844C0 27.917 7.15734 35.9689 15.9864 35.9689Z" transform="translate(57.1315 358.858) scale(0.999318 0.997879) rotate(-11.7272)" fill="white"/>
<path d="M17.9847 8.99217C17.9847 4.02593 13.9587 -4.87857e-06 8.99237 -4.87857e-06C4.02602 -4.87857e-06 -2.43934e-06 4.02593 -2.43934e-06 8.99217V54.0529C-2.43934e-06 59.0192 4.02602 63.0451 8.99237 63.0451C13.9587 63.0451 17.9847 59.0192 17.9847 54.0529V8.99217Z" transform="translate(105.777 417.509) scale(1.00072 0.999281) rotate(-27.1728)" fill="#B1A1FF"/>
<path d="M29.9738 59.9493C46.5279 59.9493 59.9477 46.5292 59.9477 29.9747C59.9477 13.4201 46.5279 2.43934e-05 29.9738 2.43934e-05C13.4197 2.43934e-05 -5.48837e-06 13.4201 -5.48837e-06 29.9747C-5.48837e-06 46.5292 13.4197 59.9493 29.9738 59.9493Z" transform="translate(147.592 445.073) scale(1.00073 0.999274) rotate(45.5369)" fill="#B1A1FF"/>
<path d="M29.9739 59.9492C46.528 59.9492 59.9478 46.5291 59.9478 29.9746C59.9478 13.4201 46.528 0 29.9739 0C13.4198 0 -2.43928e-06 13.4201 -2.43928e-06 29.9746C-2.43928e-06 46.5291 13.4198 59.9492 29.9739 59.9492Z" transform="translate(471.29 195.908) scale(-1.00073 0.999268) rotate(-27.646)" fill="#B1A1FF"/>
<path d="M17.9844 8.99238C17.9844 4.02602 13.9584 0 8.99218 0C4.02594 0 4.87857e-06 4.02602 4.87857e-06 8.99238V54.0542C4.87857e-06 59.0205 4.02594 63.0465 8.99218 63.0465C13.9584 63.0465 17.9844 59.0205 17.9844 54.0542V8.99238Z" transform="translate(389.356 274.398) scale(1.00073 -0.999268) rotate(-28.176)" fill="#B1A1FF"/>
<path d="M45.96 91.922C71.343 91.922 91.92 71.3446 91.92 45.961C91.92 20.5774 71.343 -2.43934e-06 45.96 -2.43934e-06C20.577 -2.43934e-06 0 20.5774 0 45.961C0 71.3446 20.577 91.922 45.96 91.922Z" transform="translate(450.729 297.458) scale(-1.00073 0.999268) rotate(-27.646)" fill="#B1A1FF"/>
<path d="M17.9847 8.9922C17.9847 4.02595 13.9587 0 8.99235 0C4.02602 0 7.31799e-06 4.02595 7.31799e-06 8.9922V54.0532C7.31799e-06 59.0194 4.02602 63.0454 8.99235 63.0454C13.9587 63.0454 17.9847 59.0194 17.9847 54.0532V8.9922Z" transform="translate(360.492 319.654) scale(1.00073 -0.999268) rotate(72.5538)" fill="#B1A1FF"/>
<path d="M17.9848 13.7674C17.9848 6.16389 13.9588 0 8.9924 0C4.02604 0 7.31803e-06 6.16389 7.31803e-06 13.7674V82.7576C7.31803e-06 90.3612 4.02604 96.5251 8.9924 96.5251C13.9588 96.5251 17.9848 90.3612 17.9848 82.7576V13.7674Z" transform="translate(255.478 399.913) scale(1.00073 -0.999274) rotate(45.8573)" fill="#B1A1FF"/>
<path d="M29.9739 59.9492C46.5281 59.9492 59.9478 46.5291 59.9478 29.9746C59.9478 13.4201 46.5281 7.31801e-06 29.9739 7.31801e-06C13.4198 7.31801e-06 7.31785e-06 13.4201 7.31785e-06 29.9746C7.31785e-06 46.5291 13.4198 59.9492 29.9739 59.9492Z" transform="translate(335.506 283.13) scale(-1.00073 0.999268) rotate(-27.646)" fill="#B1A1FF"/>
<path d="M11.2705 27.6958C17.495 27.6958 22.5409 21.4959 22.5409 13.8479C22.5409 6.19992 17.495 -6.09819e-06 11.2705 -6.09819e-06C5.04595 -6.09819e-06 0 6.19992 0 13.8479C0 21.4959 5.04595 27.6958 11.2705 27.6958Z" transform="translate(289.586 311.162) scale(1.00072 -0.999276) rotate(39.4723)" fill="white"/>
<path d="M45.96 91.922C71.343 91.922 91.92 71.3446 91.92 45.961C91.92 20.5775 71.343 6.09834e-06 45.96 6.09834e-06C20.577 6.09834e-06 -2.43928e-06 20.5775 -2.43928e-06 45.961C-2.43928e-06 71.3446 20.577 91.922 45.96 91.922Z" transform="translate(361.123 388.703) scale(-1.00073 0.999268) rotate(-27.646)" fill="#B1A1FF"/>
<path d="M17.9846 8.99224C17.9846 4.02596 13.9586 -6.09826e-06 8.9923 -6.09826e-06C4.02599 -6.09826e-06 6.09829e-06 4.02596 6.09829e-06 8.99224V54.0534C6.09829e-06 59.0197 4.02599 63.0457 8.9923 63.0457C13.9586 63.0457 17.9846 59.0197 17.9846 54.0534V8.99224Z" transform="translate(292.41 373.314) scale(1.00072 -0.999276) rotate(5.13353)" fill="#B1A1FF"/>
<path d="M29.9596 59.9777C46.5059 59.9777 59.9193 46.5513 59.9193 29.9888C59.9193 13.4265 46.5059 0 29.9596 0C13.4134 0 0 13.4265 0 29.9888C0 46.5513 13.4134 59.9777 29.9596 59.9777Z" transform="matrix(0.405741 0.913988 -0.914424 0.404758 572.743 359.725)" fill="#B1A1FF"/>
<path d="M17.9738 8.99764C17.9738 4.02838 13.9502 0 8.9869 0C4.02358 0 0 4.02838 0 8.99764V54.0858C0 59.0551 4.02358 63.0834 8.9869 63.0834C13.9502 63.0834 17.9738 59.0551 17.9738 54.0858V8.99764Z" transform="matrix(-0.298549 -0.954394 0.954641 -0.29776 484.878 427.501)" fill="#B1A1FF"/>
<path d="M15.9973 35.9442C24.8324 35.9442 31.9946 27.8977 31.9946 17.9721C31.9946 8.04635 24.8324 0 15.9973 0C7.16224 0 0 8.04635 0 17.9721C0 27.8977 7.16224 35.9442 15.9973 35.9442Z" transform="matrix(0.986802 0.153044 -0.153479 0.986734 418.677 383.624)" fill="white"/>
<path d="M17.9972 8.98592C17.9972 4.02314 13.9684 0 8.99862 0C4.02882 0 0 4.02314 0 8.98592V54.0154C0 58.9782 4.02882 63.0013 8.99862 63.0013C13.9684 63.0013 17.9972 58.9782 17.9972 54.0154V8.98592Z" transform="matrix(0.993358 -0.115063 0.115393 0.99332 443.603 455.596)" fill="#B1A1FF"/>
<path d="M29.9596 59.9777C46.5059 59.9777 59.9193 46.5513 59.9193 29.9888C59.9193 13.4265 46.5059 0 29.9596 0C13.4134 0 0 13.4265 0 29.9888C0 46.5513 13.4134 59.9777 29.9596 59.9777Z" transform="matrix(0.405741 0.913988 -0.914424 0.404758 473.063 496.065)" fill="#B1A1FF"/>
<rect width="565.341" height="624.066" transform="translate(338.72 -71) scale(1.00073 0.999274) rotate(45.5369)" fill="white" fill-opacity="0.7"/>
</svg>
