<svg id="Layer_1" data-name="Layer 1" xmlns="http://www.w3.org/2000/svg" viewBox="0 0 150 319"><defs><style>.cls-1{fill:#e2dcdc;}.cls-2{fill:#fff;}</style></defs><title>backdrop-vert-grey-purp</title><circle class="cls-1" cx="50.41" cy="201.21" r="15"/><rect class="cls-1" x="41.48" y="208.17" width="9" height="31.55" rx="4.5" ry="4.5" transform="translate(66.06 451.68) rotate(-173.44)"/><circle class="cls-1" cx="36.82" cy="257.79" r="23"/><ellipse class="cls-2" cx="27.69" cy="259.08" rx="8" ry="9" transform="matrix(0.54, -0.84, 0.84, 0.54, -205.57, 142.99)"/><rect class="cls-1" x="65.03" y="249.31" width="9" height="31.55" rx="4.5" ry="4.5" transform="matrix(0.3, -0.95, 0.95, 0.3, -204.24, 252.7)"/><circle class="cls-1" cx="92.63" cy="274.45" r="15"/><circle class="cls-1" cx="86.03" cy="29.21" r="15"/><rect class="cls-1" x="79.94" y="36.54" width="9" height="31.55" rx="4.5" ry="4.5" transform="translate(169.36 103.84) rotate(179.47)"/><circle class="cls-1" cx="79.54" cy="87.03" r="23"/><rect class="cls-1" x="103.16" y="77.39" width="9" height="31.55" rx="4.5" ry="4.5" transform="translate(-3.08 182.64) rotate(-79.8)"/><circle class="cls-1" cx="125.91" cy="99.41" r="15"/><ellipse class="cls-2" cx="128.93" cy="99.63" rx="5.64" ry="6.93" transform="translate(-16.45 173.19) rotate(-64.54)"/><circle class="cls-1" cx="98.03" cy="148.3" r="23"/><rect class="cls-1" x="109.3" y="102.95" width="9" height="31.55" rx="4.5" ry="4.5" transform="translate(145.2 280.15) rotate(-147.22)"/></svg>