<svg id="Layer_1" data-name="Layer 1" xmlns="http://www.w3.org/2000/svg" viewBox="0 0 280.5 125.07"><defs><style>.cls-1{fill:#e2dcdc;}.cls-2{fill:#fff;}</style></defs><title>grey-backdrop-horiz</title><circle class="cls-1" cx="90" cy="110.07" r="15"/><rect class="cls-1" x="115" y="119.68" width="9" height="31.55" rx="4.5" ry="4.5" transform="translate(-85.28 19.16) rotate(-26)"/><circle class="cls-1" cx="71" cy="55.07" r="23"/><ellipse class="cls-2" cx="78" cy="49.07" rx="9" ry="8"/><rect class="cls-1" x="73" y="97.68" width="9" height="31.55" rx="4.5" ry="4.5" transform="translate(128.54 -38.12) rotate(74.73)"/><circle class="cls-1" cx="15" cy="71.07" r="15"/><circle class="cls-1" cx="147.69" cy="15.56" r="15"/><rect class="cls-1" x="200.58" y="59.38" width="9" height="31.55" rx="4.5" ry="4.5" transform="translate(331.41 -115.67) rotate(118.67)"/><circle class="cls-1" cx="195" cy="49.44" r="23"/><rect class="cls-1" x="247.57" y="59.03" width="9" height="31.55" rx="4.5" ry="4.5" transform="translate(361.38 245.67) rotate(-140.6)"/><circle class="cls-1" cx="228.43" cy="15" r="15"/><ellipse class="cls-2" cx="268.08" cy="59.4" rx="6.93" ry="5.64" transform="matrix(0.82, -0.58, 0.58, 0.82, -22.97, 119.06)"/><circle class="cls-1" cx="257.5" cy="63.19" r="23"/><rect class="cls-1" x="272.87" y="66.15" width="9" height="31.55" rx="4.5" ry="4.5" transform="translate(522.72 -22.98) rotate(151.98)"/></svg>